<svg width="47" height="47" viewBox="0 0 47 47" fill="none" xmlns="http://www.w3.org/2000/svg">
<g clip-path="url(#clip0_270_483)">
<path d="M16.226 2.00102C15.6107 2.19652 15.0722 2.66243 14.7604 3.26447C14.6043 3.55672 14.602 3.91629 14.6781 9.50949L14.7608 15.4533L12.833 15.4889C11.3715 15.5158 10.8957 15.4983 10.8672 15.4111C10.8483 15.3589 10.5299 13.6548 10.1698 11.6358C9.58929 8.36689 9.49107 7.90395 9.24009 7.42629C8.92424 6.83582 8.44061 6.38875 7.78937 6.09384C7.38233 5.90843 7.2925 5.90132 3.93855 5.93685L0.512876 5.97371L0.292754 6.19699C0.0109965 6.48279 0.00913905 6.86866 0.302044 7.18771L0.521764 7.42919L3.78637 7.41284C7.50842 7.39683 7.4993 7.38823 7.88066 8.12656C8.03874 8.43056 8.61599 11.5241 10.5983 22.7206C12.5294 33.5673 13.1766 37.0542 13.3551 37.4893C14.1355 39.4392 15.9612 40.677 18.2147 40.7933C18.6545 40.8115 18.9962 40.8578 18.9788 40.8845C18.6839 41.4336 18.4538 42.0867 18.3818 42.5616C18.1843 44.0121 19.0846 45.6528 20.451 46.3029C22.5684 47.3073 25.0522 46.2969 25.7926 44.1261C26.1413 43.0937 25.9637 41.729 25.3753 40.9507L25.1821 40.6912L30.5261 40.5926C33.4671 40.5384 35.8617 40.5206 35.8444 40.556C35.8273 40.6001 35.6802 40.8922 35.5337 41.2194C34.3419 43.7142 36.5309 46.6553 39.3689 46.3662C40.9445 46.2056 42.2347 45.1558 42.6825 43.6569C42.8012 43.2864 42.8222 42.9615 42.7846 42.3835C42.7454 41.7178 42.6881 41.5259 42.4092 40.9961L42.0841 40.3883L44.1369 40.3241L46.1898 40.26L46.4004 40.0106C46.6724 39.6811 46.6653 39.2954 46.3734 39.0289L46.1541 38.8138L32.1844 39.0713C16.9772 39.3517 17.5066 39.3595 16.5467 38.8686C15.7499 38.4624 14.888 37.4435 14.6762 36.6582L14.6181 36.4226L28.668 36.1372L42.727 35.8517L43.3152 35.6479C44.4826 35.2318 45.4539 34.3983 45.964 33.363C46.4829 32.3187 46.4768 32.4766 46.3188 23.9035C46.1813 16.4436 46.1649 16.0406 45.9972 15.7017C45.9038 15.5017 45.684 15.2515 45.5205 15.1405C45.2298 14.9441 45.131 14.9372 43.669 14.9378C42.8169 14.936 42.117 14.9226 42.1165 14.8963C42.1162 14.8788 42.648 13.0713 43.2982 10.8759C43.9483 8.68042 44.4785 6.78532 44.4762 6.6626C44.4699 6.32072 44.0905 5.68758 43.773 5.49175C43.6188 5.39814 40.5793 4.48959 37.0089 3.48561L30.5261 1.65843L23.4876 1.79698C19.614 1.8684 16.3509 1.96364 16.226 2.00102ZM17.7077 9.39225L17.8185 15.4057L17.0828 15.393L16.3381 15.3804L16.2057 9.6567L16.0822 3.93285L16.3374 3.66507C16.5665 3.44162 16.6645 3.40474 17.0949 3.39681L17.597 3.38755L17.7077 9.39225ZM27.9999 3.29219C28.0009 3.34479 27.8578 3.85603 27.6891 4.43789L27.3766 5.48716L24.2742 5.54436L21.1628 5.60173L20.9518 5.83361C20.7496 6.05657 20.7416 6.10933 20.7416 7.56498C20.7364 9.23118 20.7779 9.53732 21.0255 9.8309C21.1996 10.0294 21.2265 10.0289 23.6124 10.0287L26.0252 10.0281L25.2569 12.6291L24.4886 15.2301L21.9421 15.2771L19.3867 15.3242L19.2494 9.33751L19.1213 3.35944L23.5597 3.27761C26.6531 3.22057 27.9986 3.22207 27.9999 3.29219ZM30.654 3.24326C30.8793 3.30049 31.0871 3.38434 31.106 3.43661C31.1344 3.51501 30.0803 7.15603 27.9681 14.2189L27.6725 15.2153L26.9104 15.2293C26.3186 15.2402 26.1567 15.2169 26.1549 15.1205C26.1536 15.0503 26.9124 12.4232 27.8411 9.27556C29.8001 2.66271 29.6362 3.01649 30.654 3.24326ZM38.0385 5.33442C40.7165 6.09178 42.9165 6.71766 42.9257 6.72626C42.9346 6.72609 42.4875 8.26014 41.93 10.1294C41.3725 11.9987 40.8236 13.8503 40.7053 14.2471L40.4946 14.9788L34.8905 15.0822C29.5913 15.1799 29.2863 15.1767 29.3284 15.0269C29.5732 14.1981 32.5965 4.00542 32.6219 3.92603C32.6565 3.85524 32.746 3.84482 32.9171 3.88551C33.0525 3.92686 35.3606 4.57705 38.0385 5.33442ZM26.9031 7.04799C26.9039 7.09183 26.8024 7.42692 26.6838 7.80617L26.4632 8.48545L24.3916 8.50611L22.3109 8.51816L22.2706 7.79108L22.2304 7.07277L24.5707 7.02962C25.8529 7.00598 26.9024 7.01293 26.9031 7.04799ZM44.7819 24.2212L44.8991 32.041L44.6141 32.6337C44.3031 33.2796 43.854 33.7351 43.1963 34.0629L42.7876 34.2721L28.5583 34.5608L14.3198 34.8409L14.2714 34.6488C14.2514 34.5352 13.5512 30.6109 12.7204 25.926C11.8896 21.2412 11.1894 17.3168 11.1693 17.2032L11.121 17.0112L27.8883 16.702L44.6645 16.3927L44.7819 24.2212ZM23.0878 40.9402C23.585 41.1503 24.0872 41.6321 24.2931 42.0931C24.4987 42.5453 24.4772 43.3261 24.2538 43.8563C23.8244 44.8902 22.5789 45.4481 21.4962 45.0998C20.305 44.7096 19.656 43.5641 19.9754 42.4007C20.0844 41.9865 20.2064 41.7913 20.5675 41.4339C20.823 41.1837 21.1682 40.9318 21.3376 40.8761C21.8815 40.6994 22.5905 40.7214 23.0878 40.9402ZM39.9448 40.6294C40.7405 40.9743 41.2658 41.7363 41.2725 42.5867C41.2891 43.4896 40.9066 44.1456 40.1344 44.5895C39.5217 44.9253 38.6167 44.977 38.0463 44.6894C36.7519 44.0468 36.3388 42.5637 37.1333 41.3828C37.7272 40.5125 38.932 40.1833 39.9448 40.6294Z" fill="#F5F5F7"/>
<path d="M33.105 7.85409C32.9464 8.00953 32.7841 8.45211 32.4639 9.57044C31.9839 11.2659 31.9452 11.5985 32.255 11.862C32.4648 12.0554 38.2728 13.7695 38.6763 13.7621C39.1784 13.7528 39.2829 13.5804 39.8052 11.7497C40.2688 10.1353 40.2934 10.0092 40.1637 9.78732C40.0895 9.65412 39.889 9.47839 39.7171 9.40082C39.2467 9.18521 33.8366 7.64324 33.5586 7.64836C33.4331 7.65068 33.2285 7.74416 33.105 7.85409ZM36.3822 9.98264C37.4641 10.2857 38.3843 10.5737 38.43 10.6177C38.5211 10.6968 38.1693 12.049 38.0617 12.0509C38.0259 12.0516 37.4939 11.8999 36.8807 11.7228C36.2673 11.5368 35.3385 11.2668 34.8156 11.124C34.2926 10.9721 33.8415 10.8279 33.796 10.7929C33.7594 10.7577 33.8074 10.4428 33.9088 10.1C34.1282 9.35136 34.1365 9.31532 34.299 9.37512C34.3623 9.40087 35.3001 9.67066 36.3822 9.98264Z" fill="#F5F5F7"/>
<path d="M18.4628 16.5147C18.2017 16.7915 18.1917 16.8508 18.2227 18.5293L18.2543 20.2433L14.7625 20.3077L11.2597 20.3723L10.9991 20.6727C10.6621 21.0337 10.6514 21.6606 10.9579 22.0451L11.1738 22.3249L14.7326 22.2948L18.2915 22.2646L18.3654 26.2718L18.4394 30.2908L16.0008 30.3358C13.0079 30.391 12.7875 30.466 12.806 31.4707C12.8099 31.6835 12.9254 31.9297 13.0949 32.1039L13.3664 32.3945L15.927 32.3473L18.4765 32.3003L18.5081 34.0143C18.539 35.6928 18.5512 35.7517 18.8222 36.0187C19.1615 36.379 19.7495 36.3918 20.1094 36.0659C20.3604 35.8484 20.37 35.7655 20.3716 34.0509L20.372 32.2654L24.1408 32.1959L27.8986 32.1266L27.928 33.7224C27.9663 35.8028 28.1168 36.1429 28.9814 36.127C29.1809 36.1233 29.4115 36.0008 29.5745 35.8204C29.8355 35.5437 29.8455 35.4843 29.8146 33.8058L29.783 32.0918L33.5855 32.0454L37.3772 32.0109L37.442 33.7243C37.493 35.2842 37.5182 35.4493 37.7445 35.6934C38.0953 36.0772 38.7156 36.0421 39.0629 35.6337C39.3126 35.3453 39.3218 35.2387 39.3252 33.6186L39.327 31.9159L42.3199 31.8607L45.3128 31.8055L45.5734 31.5051C45.8668 31.1804 45.922 30.5645 45.6834 30.2496C45.3651 29.8298 45.0984 29.7993 42.1721 29.8532L39.2789 29.9066L39.2048 25.8876L39.1308 21.8686L42.0128 21.8154C45.4935 21.7513 45.6699 21.7007 45.651 20.6723C45.6471 20.4596 45.5316 20.2134 45.3621 20.0391L45.0906 19.7485L42.0977 19.8037L39.1048 19.8589L39.0402 18.1573C38.9771 16.5385 38.964 16.4323 38.7039 16.1534C38.3643 15.7812 37.8318 15.7674 37.4391 16.1175C37.1552 16.3593 37.1446 16.3831 37.154 18.0975L37.1528 19.8357L33.3624 19.9411L29.5608 20.0349L29.5292 18.3209C29.4982 16.6424 29.4861 16.5835 29.215 16.3165C28.9099 16.0028 28.3321 15.9426 28.0374 16.1963C27.6771 16.4986 27.6171 16.8544 27.6467 18.462L27.6764 20.0696L23.9075 20.1391L20.1387 20.2086L20.1093 18.6128C20.0709 16.5324 19.9205 16.1922 19.0559 16.2082C18.8564 16.2119 18.6258 16.3344 18.4628 16.5147ZM27.7875 26.0981L27.8615 30.1171L24.0927 30.1866L20.3239 30.2561L20.2498 26.2371L20.1757 22.2181L23.9446 22.1486L27.7134 22.0791L27.7875 26.0981ZM37.3204 25.9223L37.3945 29.9413L33.5702 30.0118L29.746 30.0823L29.6719 26.0633L29.5978 22.0444L33.4221 21.9738L37.2463 21.9033L37.3204 25.9223Z" fill="#F5F5F7"/>
</g>
<defs>
<clipPath id="clip0_270_483">
<rect width="46.75" height="46.75" fill="white"/>
</clipPath>
</defs>
</svg>
